<?xml version="1.0" standalone="no"?>
<!DOCTYPE svg PUBLIC "-//W3C//DTD SVG 20010904//EN"
 "http://www.w3.org/TR/2001/REC-SVG-20010904/DTD/svg10.dtd">
<svg version="1.0" xmlns="http://www.w3.org/2000/svg"
 width="1512.000000pt" height="1512.000000pt" viewBox="0 0 1512.000000 1512.000000"
 preserveAspectRatio="xMidYMid meet">
<metadata>
Created by potrace 1.11, written by Peter Selinger 2001-2013
</metadata>
<g transform="translate(0.000000,1512.000000) scale(0.100000,-0.100000)"
fill="#000000" stroke="none">
<path d="M8097 11185 c-23 -12 -160 -131 -333 -290 -83 -76 -201 -184 -218
-198 -12 -10 -39 -35 -61 -56 -22 -20 -89 -82 -150 -136 -60 -55 -115 -104
-121 -110 -6 -5 -49 -45 -96 -88 -47 -42 -96 -87 -110 -100 -13 -12 -66 -60
-118 -107 -51 -47 -98 -89 -104 -95 -6 -5 -56 -50 -110 -100 -55 -49 -107 -97
-116 -105 -9 -8 -56 -51 -104 -95 -49 -44 -101 -91 -116 -105 -15 -14 -65 -59
-111 -101 -46 -41 -145 -131 -219 -198 -74 -68 -145 -130 -157 -138 -27 -18
-103 -19 -133 -3 -18 9 -119 96 -216 185 -39 35 -154 138 -178 159 l-30 25 62
70 c191 214 286 273 340 209 29 -35 40 -122 38 -281 -3 -134 -1 -161 13 -177
29 -34 76 -30 94 8 13 25 17 58 22 192 2 53 -9 180 -19 228 -12 55 -56 131
-92 158 -33 25 -46 29 -104 29 -57 0 -73 -4 -125 -35 -55 -33 -184 -153 -284
-263 l-43 -48 -31 28 c-17 15 -36 33 -42 38 -11 9 -155 138 -179 160 -6 6 -52
46 -101 90 -50 44 -108 97 -130 117 -22 20 -51 46 -65 58 -32 28 -157 139
-235 210 -33 30 -96 87 -140 125 -43 39 -86 77 -95 85 -8 8 -48 44 -88 79 -55
49 -72 70 -72 90 0 65 -68 131 -135 131 -44 0 -96 -31 -117 -71 -47 -88 8
-194 107 -203 33 -4 57 -19 105 -66 8 -8 67 -61 130 -116 63 -56 127 -112 141
-125 14 -13 86 -78 160 -144 73 -66 139 -124 145 -130 6 -5 49 -44 95 -85 46
-41 104 -93 129 -116 25 -22 65 -58 89 -80 25 -21 52 -46 61 -54 8 -8 50 -46
92 -83 l76 -68 -87 -117 c-48 -64 -107 -146 -132 -182 -24 -36 -46 -67 -49
-70 -8 -8 -226 -339 -302 -458 -192 -305 -518 -850 -676 -1132 -14 -25 -34
-61 -45 -80 -237 -421 -427 -774 -633 -1175 l-72 -140 -73 -24 c-102 -32 -407
-140 -444 -156 -16 -8 -70 -30 -118 -49 -229 -94 -637 -287 -867 -411 -47 -26
-114 -62 -150 -81 -382 -205 -1065 -637 -1088 -688 -16 -36 2 -76 40 -89 25
-8 43 2 170 86 693 458 1450 862 2067 1104 154 61 363 134 368 129 2 -2 -30
-75 -72 -162 -339 -703 -532 -1212 -507 -1340 6 -32 45 -58 75 -50 29 7 44 37
51 98 18 175 205 635 516 1274 l117 240 129 32 c71 18 138 34 149 36 107 21
199 36 240 41 28 4 61 9 75 11 14 3 108 7 210 9 355 7 606 -57 828 -211 98
-68 93 -53 56 -183 -97 -350 -224 -863 -273 -1101 -43 -210 -59 -405 -39 -477
29 -110 145 -142 263 -73 221 128 418 520 480 953 9 67 7 250 -5 327 -29 189
-90 334 -201 476 l-48 60 53 195 c216 784 286 1044 293 1078 2 14 6 28 9 33 3
4 7 16 9 26 2 10 30 121 63 248 54 207 77 303 171 699 20 86 32 119 42 118 8
-1 34 -7 59 -13 100 -26 204 12 310 111 36 33 126 118 200 189 74 70 151 142
170 160 19 18 98 91 174 164 77 72 158 148 180 169 112 105 185 174 324 306
84 79 164 155 180 169 15 14 89 84 166 156 76 72 157 148 180 170 22 21 75 70
116 110 42 39 140 132 219 206 200 188 226 212 311 293 146 139 381 361 403
380 54 48 142 62 208 34 41 -18 36 -13 345 -314 137 -133 281 -272 320 -310
39 -37 183 -177 320 -309 137 -133 279 -270 315 -305 72 -69 512 -495 588
-569 125 -123 154 -133 413 -134 205 -2 208 -2 233 -26 22 -21 37 -25 87 -25
56 0 62 2 94 37 33 36 38 53 36 108 -5 104 -141 163 -216 94 l-28 -27 -194 1
c-188 1 -194 1 -236 26 -24 14 -64 47 -89 73 -40 41 -205 202 -547 532 -43 40
-189 182 -325 315 -137 132 -279 270 -315 305 -37 35 -170 163 -295 285 -356
345 -376 363 -424 386 -133 62 -297 38 -403 -60 -19 -18 -102 -97 -185 -175
-82 -78 -163 -154 -180 -169 -30 -27 -102 -96 -260 -245 -151 -143 -390 -368
-426 -402 -107 -100 -307 -289 -339 -319 -20 -19 -96 -91 -169 -160 -74 -69
-155 -145 -181 -170 -26 -25 -104 -98 -173 -164 -69 -65 -141 -132 -159 -150
-158 -148 -335 -315 -357 -335 -14 -13 -67 -63 -117 -111 -134 -127 -155 -142
-208 -142 -57 0 -106 27 -100 56 20 113 32 151 45 148 79 -20 137 -7 190 40
20 18 70 65 111 103 41 39 139 131 218 205 79 74 160 151 180 170 20 19 68 64
106 100 39 36 133 124 209 196 77 73 156 146 175 164 34 32 277 260 351 330
94 89 298 281 329 310 47 43 283 266 389 367 l86 81 -23 25 c-22 24 -25 24
-41 9 -27 -27 -283 -268 -316 -298 -16 -15 -93 -86 -169 -158 -76 -72 -151
-142 -166 -156 -15 -14 -94 -89 -177 -168 -83 -78 -161 -152 -174 -163 -13
-11 -58 -53 -99 -92 -71 -68 -330 -312 -389 -367 -15 -14 -87 -82 -161 -152
-334 -314 -468 -439 -496 -463 -43 -37 -144 -24 -144 19 0 16 -23 37 -43 40
-17 2 -52 31 -177 146 -52 48 -117 108 -145 133 -27 25 -75 67 -105 95 l-54
50 -18 -23 c-23 -30 -23 -35 6 -60 13 -11 68 -61 122 -111 55 -50 126 -115
159 -145 33 -30 77 -70 99 -90 l39 -36 -12 -64 c-7 -35 -15 -72 -17 -82 -5
-14 -26 1 -112 79 -59 54 -111 103 -117 108 -5 6 -57 54 -115 106 -58 52 -108
98 -111 103 -16 21 -76 57 -95 57 -29 0 -72 -38 -75 -65 -5 -59 -26 -35 286
-319 72 -65 142 -130 156 -145 14 -14 51 -48 83 -75 65 -57 63 -42 26 -211
-12 -55 -24 -111 -27 -124 -22 -122 -268 -1063 -476 -1819 l-83 -303 -55 39
c-172 121 -419 206 -664 227 -130 12 -469 5 -495 -10 -3 -1 -27 -5 -55 -9
-110 -13 -134 -18 -263 -46 -73 -17 -135 -30 -138 -30 -6 0 188 376 276 535
15 28 43 79 62 115 67 125 256 466 307 554 28 49 51 90 51 91 0 2 36 64 80
140 44 76 80 139 80 142 0 2 8 16 19 31 10 15 72 117 136 227 209 353 551 889
707 1106 85 119 170 236 186 258 l19 23 25 -23 c28 -26 158 -143 192 -172 12
-10 39 -35 61 -56 74 -69 156 -131 193 -147 22 -9 68 -16 112 -17 62 -1 84 3
130 25 30 15 73 43 95 63 86 79 219 201 235 215 48 42 166 149 194 175 18 17
52 48 76 70 25 22 77 69 115 104 111 101 153 140 260 236 55 50 124 113 154
140 29 28 59 55 65 60 51 45 215 194 232 210 11 11 54 50 95 86 73 66 85 77
184 167 181 166 237 216 360 328 55 50 116 105 135 122 l35 33 6 -63 c7 -80
14 -94 51 -107 76 -27 111 16 109 133 0 45 -3 92 -6 106 -17 84 -131 136 -208
95z m-3058 -5468 c184 -292 194 -666 30 -1064 -97 -233 -248 -432 -347 -456
-87 -21 -55 222 129 958 28 110 71 277 96 370 48 181 51 193 52 212 1 18 24 6
40 -20z"/>
<path d="M2950 10859 c-128 -21 -231 -109 -275 -234 -16 -47 -17 -158 -17
-1650 0 -1595 0 -1600 20 -1654 54 -138 167 -225 307 -234 142 -10 269 65 342
205 l28 53 3 1137 2 1138 24 34 c58 86 1 203 -101 211 -64 4 -117 -31 -138
-93 -17 -49 -9 -90 26 -134 l29 -37 0 -1098 c0 -1063 -1 -1099 -20 -1138 -26
-55 -39 -69 -85 -94 -71 -38 -166 -23 -221 36 -60 63 -56 -44 -56 1659 0 859
3 1577 7 1595 28 133 203 183 306 88 14 -13 75 -69 135 -124 60 -55 136 -125
169 -156 33 -31 72 -67 86 -80 15 -13 73 -67 129 -119 57 -52 112 -103 124
-113 21 -19 168 -154 236 -217 64 -59 232 -215 289 -266 30 -27 68 -62 86 -79
30 -29 181 -167 278 -256 55 -49 87 -62 123 -48 29 10 53 60 46 95 -2 13 -27
45 -56 70 -51 47 -218 200 -331 305 -54 50 -92 84 -191 175 -83 77 -230 212
-254 234 -15 14 -76 70 -136 125 -120 111 -243 224 -260 240 -6 5 -60 55 -120
110 -60 55 -119 110 -131 122 -12 11 -58 52 -102 91 -104 89 -191 119 -301
101z"/>
<path d="M14288 10765 c-102 -28 -115 -39 -408 -345 -96 -100 -195 -203 -220
-229 -25 -26 -119 -125 -210 -220 -91 -95 -187 -196 -215 -225 -27 -29 -133
-140 -235 -246 -268 -280 -321 -334 -355 -355 -26 -17 -51 -19 -195 -20 l-165
-1 -33 28 c-18 15 -38 29 -45 29 -80 9 -131 -10 -159 -59 -22 -37 -23 -103 -3
-142 35 -68 147 -90 202 -38 23 22 30 22 211 23 186 1 189 1 247 29 69 34 140
104 629 620 28 30 126 132 218 228 91 95 188 196 215 224 464 487 485 508 525
527 123 58 275 1 333 -126 29 -61 27 -155 -4 -216 -30 -58 -1652 -1681 -1706
-1706 -37 -17 -70 -19 -414 -19 l-373 -1 -22 -26 -23 -27 0 -509 c-1 -501 -1
-511 -22 -559 -29 -64 -64 -101 -126 -130 -123 -58 -260 -10 -326 116 l-24 45
-5 541 c-5 517 -6 541 -24 560 -19 18 -39 19 -415 20 -267 1 -410 6 -439 13
-51 14 -96 58 -472 461 -14 15 -89 94 -167 176 -77 82 -165 174 -195 205 -29
32 -112 119 -184 195 -72 77 -153 162 -179 189 -25 28 -77 82 -113 120 -37 39
-132 140 -212 225 -218 231 -225 238 -270 250 -69 19 -145 -23 -165 -90 -5
-14 -8 -668 -8 -1454 l0 -1429 -26 -51 c-81 -154 -292 -156 -374 -3 l-22 42
-2 970 c-1 534 -2 1192 -2 1463 l-1 493 -25 24 c-39 40 -96 30 -122 -20 -8
-14 -11 -466 -11 -1476 0 -1423 0 -1457 20 -1514 34 -100 93 -172 182 -217
215 -111 468 5 532 245 10 39 12 335 10 1439 l-2 1390 86 -89 c80 -83 314
-330 430 -453 28 -30 111 -118 183 -194 73 -77 149 -158 170 -180 39 -42 106
-113 276 -292 53 -55 161 -169 241 -254 273 -288 281 -295 370 -325 49 -17 92
-19 410 -19 l355 -1 5 -495 c5 -479 6 -497 27 -548 94 -230 349 -329 570 -222
102 50 198 175 219 286 4 21 7 244 7 494 l0 455 311 -1 c328 0 374 4 459 47
46 24 1677 1652 1727 1724 57 83 82 220 59 320 -14 62 -59 150 -99 192 -105
112 -266 158 -412 118z"/>
<path d="M8678 10677 c-85 -52 -141 -143 -170 -282 -7 -34 -11 -478 -12 -1362
l-1 -1313 -33 -27 c-60 -50 -51 -152 15 -182 117 -53 216 90 120 174 l-34 30
2 1320 c1 726 5 1331 8 1344 57 220 160 301 314 250 29 -9 230 -205 910 -885
480 -480 893 -887 918 -905 25 -18 76 -43 113 -55 63 -22 83 -23 354 -24 l288
-1 0 35 0 35 -267 1 c-148 0 -279 2 -293 4 -42 5 -103 28 -144 53 -21 14 -433
419 -915 900 -701 701 -885 881 -924 899 -37 16 -67 22 -122 22 -65 0 -80 -4
-127 -31z m-116 -3034 c26 -23 23 -59 -7 -79 -29 -19 -61 -11 -71 19 -10 29
-6 49 14 65 22 16 42 15 64 -5z"/>
<path d="M14392 10483 c-38 -19 -66 -74 -58 -116 7 -36 69 30 -793 -846 -618
-629 -628 -639 -676 -667 -76 -44 -98 -47 -400 -50 -159 -1 -297 -3 -306 -3
-14 -1 -17 -20 -10 -62 1 -3 139 -5 309 -4 282 2 312 3 364 22 102 37 120 54
594 538 75 77 326 332 556 567 414 420 420 426 454 421 90 -15 152 74 109 157
-26 49 -90 69 -143 43z"/>
<path d="M3944 10326 c-38 -38 -44 -77 -19 -126 20 -38 47 -52 106 -54 46 -1
53 -5 156 -98 59 -53 122 -109 139 -125 25 -23 192 -174 230 -208 6 -5 31 -28
55 -50 24 -22 89 -80 144 -130 55 -49 106 -96 113 -102 18 -18 24 -16 44 12
21 27 28 17 -87 120 -43 39 -83 75 -89 81 -6 5 -58 52 -116 104 -58 52 -125
112 -150 135 -25 23 -97 89 -160 146 -203 183 -191 169 -185 203 7 39 -21 96
-55 113 -46 23 -89 16 -126 -21z m110 -35 c31 -26 7 -91 -34 -91 -46 0 -70 52
-39 86 21 23 49 25 73 5z"/>
<path d="M2989 10308 c-1 -2 -2 -585 -3 -1296 l-1 -1294 -26 -21 c-60 -50 -66
-112 -15 -163 26 -26 42 -34 70 -34 68 0 100 28 111 98 6 38 -16 84 -51 103
l-23 12 0 1196 c0 658 0 1242 0 1299 l-1 102 -30 0 c-16 0 -31 -1 -31 -2z m63
-2665 c26 -23 23 -59 -7 -79 -36 -23 -75 -3 -75 38 0 53 44 75 82 41z"/>
<path d="M11800 8883 c-8 -3 -27 -17 -42 -31 -22 -21 -28 -35 -28 -70 0 -37 6
-50 36 -80 l37 -37 0 -561 c0 -551 0 -562 19 -567 50 -13 48 -34 48 572 l0
568 24 13 c47 25 63 108 29 154 -29 40 -78 55 -123 39z"/>
<path d="M9232 7239 c-48 -18 -72 -61 -66 -119 4 -35 41 -79 70 -81 8 -1 20
-2 27 -3 44 -7 87 47 87 107 0 62 -66 115 -118 96z"/>
<path d="M10702 7160 c-43 -10 -93 -45 -119 -85 -41 -62 -55 -137 -55 -286 l0
-139 -92 -85 c-51 -46 -110 -98 -132 -116 -21 -17 -41 -34 -44 -38 -6 -7 -164
-134 -255 -203 -202 -154 -481 -310 -610 -343 -121 -31 -208 -9 -268 67 l-29
37 67 153 c37 84 73 167 81 183 56 130 105 310 106 390 0 107 -50 163 -136
152 -32 -4 -50 -15 -82 -51 -129 -141 -227 -520 -193 -738 8 -48 6 -56 -19
-92 -43 -63 -174 -188 -236 -225 -115 -69 -235 -93 -350 -71 -131 25 -189 93
-188 224 0 106 45 257 116 390 14 27 26 60 26 72 0 28 -32 64 -57 65 -10 0
-54 2 -98 4 -116 5 -221 16 -283 30 -20 5 -21 8 -10 28 20 39 15 146 -10 195
-59 111 -211 146 -299 69 -82 -72 -105 -208 -49 -282 15 -19 49 -48 77 -63
l49 -29 -83 -81 c-250 -247 -631 -473 -856 -507 -76 -12 -122 -7 -176 20 -49
24 -105 79 -105 104 0 6 27 47 60 92 70 94 143 238 165 324 29 113 18 215 -32
295 -28 45 -53 60 -102 62 -89 3 -172 -101 -224 -283 -39 -133 -51 -276 -34
-403 l6 -49 -52 -49 c-76 -72 -164 -133 -248 -172 -171 -80 -239 -49 -239 109
0 127 28 256 127 585 61 204 70 275 39 309 -25 27 -77 28 -100 2 -11 -12 -18
-35 -18 -58 0 -21 -24 -121 -54 -223 -31 -102 -57 -192 -59 -200 -2 -8 -12
-51 -23 -95 -58 -235 -61 -402 -10 -500 96 -182 367 -132 652 118 l40 35 44
-49 c92 -102 236 -140 397 -104 282 63 657 293 932 573 l102 104 48 -11 c70
-15 107 -20 211 -27 50 -4 92 -9 92 -11 0 -2 -11 -30 -24 -64 -64 -155 -88
-350 -58 -455 42 -146 176 -232 372 -239 214 -8 413 94 587 300 l26 30 15 -23
c23 -34 102 -87 157 -104 204 -64 562 99 1025 466 63 50 117 93 120 96 3 3 41
36 85 75 44 38 87 76 95 84 13 13 15 7 18 -49 2 -49 -1 -67 -12 -75 -8 -5 -54
-32 -101 -59 -102 -59 -196 -141 -220 -193 -26 -53 -27 -146 -5 -207 57 -148
207 -181 341 -75 70 55 111 167 124 339 8 105 11 117 33 123 9 3 60 23 112 45
336 139 891 281 1280 326 25 3 72 8 105 12 33 3 68 8 77 10 97 17 611 24 788
10 365 -28 723 -103 1002 -211 123 -48 135 -49 163 -19 27 29 27 67 -1 94 -68
68 -656 227 -939 255 -33 3 -71 8 -85 10 -152 26 -810 26 -947 1 -10 -2 -54
-7 -98 -11 -44 -4 -82 -8 -85 -10 -3 -2 -34 -6 -70 -10 -36 -4 -73 -9 -83 -10
-9 -2 -80 -16 -157 -30 -77 -14 -148 -28 -157 -30 -51 -10 -321 -80 -411 -106
-113 -33 -300 -98 -426 -148 -43 -18 -81 -29 -84 -26 -4 3 -7 47 -7 98 l-2 92
78 80 c145 150 178 203 180 291 3 131 -98 220 -219 194z m70 -147 c10 -9 18
-28 18 -43 0 -31 -44 -101 -95 -150 l-37 -35 6 82 c6 85 23 134 53 152 25 14
34 13 55 -6z m-1578 -450 c-25 -81 -62 -181 -84 -228 -5 -11 -14 -33 -20 -49
-18 -48 -20 -24 -5 49 23 111 44 174 89 268 50 106 60 87 20 -40z m-1502 73
c29 -22 37 -58 23 -100 -7 -20 -16 -40 -19 -43 -3 -3 -27 5 -53 18 -41 21 -48
29 -51 57 -6 66 52 105 100 68z m-1197 -201 c-4 -75 -39 -172 -96 -267 l-44
-73 -3 40 c-8 93 43 291 94 369 l27 39 12 -23 c8 -15 12 -49 10 -85z m4030
-305 c-2 -3 -6 -25 -9 -50 -10 -74 -14 -90 -35 -134 -21 -43 -46 -63 -92 -76
-70 -20 -111 88 -61 160 10 14 56 51 103 82 71 48 85 54 90 40 4 -9 5 -19 4
-22z"/>
<path d="M5815 5001 c-83 -23 -134 -61 -167 -125 -34 -64 -31 -175 5 -241 49
-90 119 -130 244 -141 92 -8 160 -41 196 -96 15 -23 28 -51 28 -63 7 -90 -19
-141 -92 -178 -48 -26 -62 -28 -129 -25 -102 6 -144 32 -198 125 -34 57 -71
69 -96 31 -20 -30 -8 -79 33 -136 62 -84 162 -134 268 -133 204 1 332 124 319
303 -13 168 -129 270 -322 283 -63 4 -111 23 -138 56 -73 86 -42 196 65 228
88 26 166 3 232 -68 43 -46 58 -50 87 -21 28 28 25 52 -12 101 -51 66 -122
100 -215 105 -43 2 -91 -1 -108 -5z"/>
<path d="M6537 4978 c-85 -18 -162 -84 -205 -176 l-27 -57 -3 -327 c-2 -223 0
-334 8 -348 13 -24 62 -27 80 -5 10 12 13 91 14 323 1 203 6 321 14 347 23 79
102 139 183 138 56 -1 100 -23 132 -65 45 -60 48 -89 48 -405 0 -326 4 -353
49 -353 54 0 55 7 56 339 0 193 5 320 12 345 26 89 92 142 177 139 71 -3 129
-42 166 -114 22 -43 23 -51 24 -360 1 -339 2 -349 51 -349 54 0 55 5 54 344
-1 376 -8 412 -98 503 -58 59 -122 85 -207 86 -79 1 -129 -19 -194 -78 l-38
-34 -33 34 c-63 65 -168 94 -263 73z"/>
<path d="M7812 4973 c-18 -15 -281 -653 -342 -828 -26 -74 0 -116 56 -92 16 7
35 44 70 133 l49 123 75 1 c140 2 313 0 314 -2 1 -2 24 -59 52 -127 56 -141
76 -160 119 -117 29 30 31 22 -65 261 -40 99 -113 281 -162 405 -80 200 -112
260 -138 260 -4 0 -17 -8 -28 -17z m50 -236 c9 -23 39 -99 67 -169 28 -70 51
-131 51 -136 0 -5 -65 -9 -145 -9 l-144 -1 13 32 c7 17 39 97 72 178 32 82 61
148 64 148 3 0 12 -19 22 -43z"/>
<path d="M11604 4964 c-100 -40 -175 -129 -200 -234 -4 -19 -8 -172 -9 -339 0
-329 1 -341 53 -341 15 0 32 8 38 18 8 12 12 117 12 325 1 278 3 310 20 349
20 46 78 103 121 119 100 39 217 -14 264 -119 19 -44 21 -65 22 -353 1 -326 2
-339 49 -339 51 1 51 -3 53 328 3 337 -2 375 -54 457 -81 128 -238 183 -369
129z"/>
<path d="M13039 4983 c-9 -2 -22 -16 -28 -31 -29 -63 -333 -827 -337 -845 -5
-27 11 -53 37 -60 34 -9 61 28 109 151 l43 112 46 1 c44 0 265 0 324 -1 15 0
27 -6 27 -12 0 -7 20 -62 44 -123 48 -120 72 -147 111 -121 11 7 21 24 23 37
2 19 -302 801 -337 868 -11 20 -36 29 -62 24z m90 -372 c39 -99 71 -181 71
-184 0 -2 -65 -4 -145 -4 -80 0 -144 4 -143 8 11 30 143 359 145 359 1 0 33
-81 72 -179z"/>
<path d="M8309 4964 c-12 -14 -14 -87 -15 -443 0 -258 3 -435 9 -448 8 -17 19
-23 42 -23 23 0 35 6 43 23 7 15 11 143 11 397 0 206 0 381 0 388 1 16 218 17
275 1 52 -14 121 -85 137 -141 39 -139 -55 -288 -182 -288 -22 0 -30 -6 -35
-25 -4 -16 -1 -32 8 -43 13 -16 248 -303 254 -311 2 -2 15 -3 29 -3 33 0 57
29 49 61 -4 20 -90 140 -114 161 -3 3 -19 22 -35 43 l-28 38 24 16 c46 32 92
88 118 143 36 78 36 192 -1 271 -33 73 -89 134 -152 167 -49 25 -59 27 -237
30 -166 3 -186 2 -200 -14z"/>
<path d="M8966 4958 c-21 -29 -20 -51 2 -71 15 -14 41 -17 133 -17 l114 0 0
-391 c-1 -427 -1 -429 56 -429 21 0 32 6 38 23 5 12 9 186 9 387 0 201 1 375
1 388 1 21 4 22 114 22 126 0 150 9 150 55 0 53 -11 55 -319 55 -281 0 -283 0
-298 -22z"/>
<path d="M9958 4963 c-14 -16 -16 -64 -16 -450 0 -314 4 -437 12 -449 18 -25
331 -24 407 1 74 25 157 108 189 190 21 56 23 75 23 260 0 235 -11 279 -91
364 -79 84 -116 95 -327 99 -165 3 -182 2 -197 -15z m382 -114 c60 -27 79 -45
106 -103 22 -47 23 -62 23 -235 0 -164 -3 -191 -20 -225 -49 -101 -103 -127
-268 -127 -66 -1 -123 1 -128 4 -6 4 -10 691 -4 705 0 1 56 2 124 2 101 0 130
-4 167 -21z"/>
<path d="M10696 4964 c-14 -14 -16 -68 -16 -448 0 -344 3 -436 13 -450 13 -17
34 -19 301 -18 310 0 316 1 316 53 0 53 -21 57 -260 57 -118 0 -227 1 -242 1
l-26 1 0 128 c0 70 2 134 4 143 3 13 21 15 107 14 118 -2 142 4 151 38 15 60
-9 71 -154 71 l-105 1 -1 158 -2 157 248 0 c213 0 251 2 264 16 23 22 20 71
-3 84 -12 6 -126 10 -300 10 -241 0 -282 -2 -295 -16z"/>
<path d="M12098 4966 c-21 -15 -23 -55 -5 -79 10 -14 34 -17 132 -19 l120 -3
0 -391 c0 -420 1 -424 51 -424 48 0 50 11 49 417 -1 208 1 384 3 391 3 9 36
12 117 12 90 0 117 3 129 16 23 22 20 71 -3 84 -31 16 -571 13 -593 -4z"/>
<path d="M13587 4962 c-14 -16 -16 -66 -17 -450 0 -415 0 -433 19 -448 17 -15
53 -17 301 -17 240 0 284 3 297 16 18 18 20 64 4 80 -9 9 -85 12 -257 14 -135
0 -248 4 -252 8 -4 4 -7 181 -7 394 0 415 -1 421 -50 421 -12 0 -29 -8 -38
-18z"/>
</g>
</svg>
